<svg width="56" height="56" viewBox="0 0 56 56" fill="none" xmlns="http://www.w3.org/2000/svg">
<path fill-rule="evenodd" clip-rule="evenodd" d="M17.7597 27.4834L16.332 7.65146C16.3049 7.28506 15.9873 7 15.6042 7H9.77089C9.38779 7 9.0702 7.28506 9.04314 7.65147L7.42734 30.1H5.39585C4.99282 30.1 4.66669 30.4131 4.66669 30.8V35C4.66669 35.3869 4.99282 35.7 5.39585 35.7H7.0277L6.67656 40.6H5.39585C4.99282 40.6 4.66669 40.9131 4.66669 41.3V48.3C4.66669 48.6869 4.99282 49 5.39585 49H50.6042C51.0072 49 51.3334 48.6869 51.3334 48.3V41.3C51.3334 40.9131 51.0072 40.6 50.6042 40.6H49.1056L45.885 22.3516C45.8816 22.3042 45.8733 22.2581 45.8606 22.2138L44.7609 15.9824C44.7011 15.6461 44.397 15.4 44.0417 15.4H30.9167C30.5606 15.4 30.2566 15.6468 30.1975 15.9838L28.1159 27.8061C28.1011 27.8554 28.0919 27.907 28.0888 27.9601L27.712 30.1H24.3044C24.053 29.6835 23.7434 29.2956 23.3797 28.9458L23.3744 28.9406L23.369 28.9355C22.268 27.8805 20.8055 27.3 19.25 27.3C18.7401 27.3 18.2401 27.3624 17.7597 27.4834ZM9.94782 15.4L8.8898 30.1H14.1973C14.4466 29.6853 14.7558 29.2949 15.1249 28.9406C15.4922 28.588 15.8998 28.2882 16.3376 28.0452L15.4274 15.4H9.94782ZM6.12502 34.3H13.603C13.3579 33.3828 13.3579 32.4172 13.603 31.5H6.12502V34.3ZM21.7853 29.4763C21.0498 28.9719 20.1718 28.7 19.25 28.7C18.6361 28.7 18.0416 28.8205 17.4956 29.05C17.4395 29.0849 17.3781 29.1127 17.3124 29.1319C17.1046 29.2307 16.9046 29.3456 16.7141 29.4762L17.7741 30.4934C18.6722 30.0058 19.8278 30.0058 20.7259 30.4934L21.7853 29.4763ZM15.3263 31.0411C15.4281 30.8427 15.5472 30.6505 15.6835 30.4665L16.7369 31.4774C16.4742 31.9035 16.3341 32.3912 16.3341 32.9C16.3341 33.4088 16.4742 33.8965 16.7369 34.3226L15.6835 35.3335C15.5472 35.1495 15.4281 34.9573 15.3263 34.7589C15.311 34.7188 15.292 34.6805 15.2697 34.6443C14.746 33.5397 14.746 32.2603 15.2697 31.1557C15.292 31.1195 15.311 31.0812 15.3263 31.0411ZM16.7142 36.3238C17.4498 36.8282 18.3282 37.1 19.25 37.1C20.1718 37.1 21.0498 36.8281 21.7853 36.3237L20.732 35.3126C20.2881 35.5647 19.7801 35.6993 19.25 35.6993C18.7199 35.6993 18.2119 35.5647 17.7679 35.3125L16.7142 36.3238ZM23.3744 36.8594L23.3687 36.8648C22.2677 37.9196 20.8053 38.5 19.25 38.5C19.0117 38.5 18.7756 38.4864 18.5426 38.4595L18.6979 40.6H25.8596L26.7214 35.7H24.3044C24.0531 36.1164 23.7436 36.5041 23.38 36.8539L23.3744 36.8594ZM21.7631 34.3227L22.8164 35.3338C22.95 35.1543 23.0679 34.9659 23.1695 34.7703C23.1871 34.7215 23.2102 34.6752 23.238 34.632C23.4916 34.0949 23.625 33.5074 23.625 32.9C23.625 32.2926 23.4916 31.7051 23.238 31.168C23.2102 31.1248 23.1871 31.0785 23.1695 31.0297C23.0679 30.8341 22.95 30.6457 22.8164 30.4662L21.7631 31.4773C22.0258 31.9035 22.166 32.3911 22.166 32.9C22.166 33.4089 22.0258 33.8966 21.7631 34.3227ZM20.7076 32.9C20.7076 33.2741 20.5564 33.6251 20.2822 33.8888L20.2811 33.8898C19.7316 34.4174 18.7695 34.4176 18.2197 33.8905L18.2189 33.8898C17.9441 33.626 17.7924 33.2746 17.7924 32.9C17.7924 32.5254 17.9441 32.174 18.2189 31.9102C18.4938 31.6463 18.8598 31.5007 19.25 31.5007C19.6402 31.5007 20.0063 31.6463 20.2811 31.9102C20.556 32.174 20.7076 32.5254 20.7076 32.9ZM14.1973 35.7H8.49005L8.13891 40.6H17.2354L17.0534 38.091C16.3404 37.813 15.6857 37.3978 15.1249 36.8594C14.7558 36.5051 14.4466 36.1147 14.1973 35.7ZM24.9005 34.3H30.9167C31.3197 34.3 31.6459 34.6131 31.6459 35V47.6H34.5625V33.6C34.5625 32.442 33.5813 31.5 32.375 31.5H28.3738C28.347 31.5015 28.3199 31.5015 28.2927 31.5H24.9005C25.0212 31.9518 25.0833 32.4213 25.0833 32.9C25.0833 33.3787 25.0212 33.8482 24.9005 34.3ZM15.3266 14H10.0486L10.1493 12.6H15.2258L15.3266 14ZM15.125 11.2L14.9235 8.4H10.4516L10.2501 11.2H15.125ZM36.0209 47.6H49.875V42H36.0209V47.6ZM36.0209 40.6H47.626L45.5258 28.7H42.5893L42.584 28.7L42.5788 28.7H38.9435L38.9382 28.7L38.933 28.7H35.2976L35.2924 28.7L35.2871 28.7H31.6518L31.6465 28.7L31.6413 28.7H29.4376L29.1911 30.1H32.375C34.3852 30.1 36.0209 31.6702 36.0209 33.6V40.6ZM28.2007 35.7L27.3389 40.6H30.1875V35.7H28.2007ZM30.1875 42H6.12502V47.6H30.1875V42ZM45.2788 27.3H43.5169L44.5671 23.2672L45.2788 27.3ZM42.0144 27.3L43.1081 23.1H40.9648L39.871 27.3H42.0144ZM44.0055 21.7C44.0274 21.699 44.0494 21.699 44.0716 21.7H44.2905L43.4257 16.8H31.5333L30.6704 21.7H33.0675C33.0894 21.699 33.1115 21.699 33.1336 21.7H36.7131C36.735 21.699 36.7571 21.699 36.7793 21.7H40.3589C40.3808 21.699 40.4029 21.699 40.4251 21.7H44.0055ZM39.4623 23.1L38.3686 27.3H36.2252L37.319 23.1H39.4623ZM34.7227 27.3L35.8165 23.1H33.6731L32.5794 27.3H34.7227ZM32.1706 23.1L31.0769 27.3H29.6842L30.4239 23.1H32.1706Z" fill="#ED1C24"></path>
<path d="M33.5592 14C33.3869 14 33.2146 13.9419 33.0757 13.8236C32.6235 13.4394 32.375 12.922 32.375 12.3662C32.375 11.8111 32.6235 11.2936 33.0757 10.9095L33.624 10.4426C33.7593 10.3284 33.8334 10.1828 33.8334 10.0338C33.8334 9.88406 33.7593 9.73845 33.624 9.62361C33.3228 9.36727 33.295 8.92498 33.5621 8.63582C33.8291 8.34666 34.2898 8.32 34.591 8.57635C35.0432 8.96053 35.2917 9.47801 35.2917 10.0338C35.2917 10.5888 35.0432 11.1063 34.591 11.4905L34.0427 11.9574C33.9074 12.0716 33.8334 12.2172 33.8334 12.3662C33.8334 12.5159 33.9074 12.6615 34.0427 12.7764C34.3439 13.0327 34.3717 13.475 34.1047 13.7641C33.9608 13.92 33.76 14 33.5592 14Z" fill="#ED1C24"></path>
<path d="M36.7215 13.8236C36.8604 13.9419 37.0327 14 37.205 14C37.4058 14 37.6066 13.92 37.7505 13.7641C38.0175 13.475 37.9897 13.0327 37.6885 12.7764C37.5532 12.6615 37.4792 12.5159 37.4792 12.3662C37.4792 12.2172 37.5532 12.0716 37.6885 11.9574L38.2368 11.4905C38.689 11.1063 38.9375 10.5888 38.9375 10.0338C38.9375 9.47801 38.689 8.96053 38.2368 8.57635C37.9363 8.32 37.4742 8.34666 37.2079 8.63582C36.9409 8.92498 36.9686 9.36727 37.2698 9.62361C37.4051 9.73845 37.4792 9.88406 37.4792 10.0338C37.4792 10.1828 37.4051 10.3284 37.2698 10.4426L36.7215 10.9095C36.2694 11.2936 36.0209 11.8111 36.0209 12.3662C36.0209 12.922 36.2694 13.4394 36.7215 13.8236Z" fill="#ED1C24"></path>
<path d="M40.8509 14C40.6785 14 40.5062 13.9419 40.3674 13.8236C39.9152 13.4394 39.6667 12.922 39.6667 12.3662C39.6667 11.8111 39.9152 11.2936 40.3674 10.9095L40.9157 10.4426C41.051 10.3284 41.125 10.1828 41.125 10.0338C41.125 9.88406 41.051 9.73845 40.9157 9.62361C40.6145 9.36727 40.5867 8.92498 40.8537 8.63582C41.1208 8.34666 41.5815 8.32 41.8827 8.57635C42.3348 8.96053 42.5834 9.47801 42.5834 10.0338C42.5834 10.5888 42.3348 11.1063 41.8827 11.4905L41.3344 11.9574C41.1991 12.0716 41.125 12.2172 41.125 12.3662C41.125 12.5159 41.1991 12.6615 41.3344 12.7764C41.6356 13.0327 41.6634 13.475 41.3963 13.7641C41.2525 13.92 41.0517 14 40.8509 14Z" fill="#ED1C24"></path>
</svg>