<svg width="56" height="56" viewBox="0 0 56 56" fill="none" xmlns="http://www.w3.org/2000/svg">
<path fill-rule="evenodd" clip-rule="evenodd" d="M4.66667 4.66663C4.66667 7.7459 5.13508 10.0762 5.86573 12.0352C6.56495 13.91 7.4902 15.3976 8.34111 16.7656L8.42563 16.9016C9.31021 18.3246 10.1162 19.6461 10.7202 21.3322C11.319 23.0036 11.7374 25.0908 11.7374 28C11.7374 30.9098 11.3189 32.8937 10.7309 34.4338C10.1505 35.9541 9.38462 37.1068 8.51607 38.4141L8.44946 38.5144C7.56157 39.8512 6.58819 41.3376 5.8595 43.3665C5.12829 45.4025 4.66667 47.912 4.66667 51.3333H7.49495C7.49495 48.1921 7.91718 46.0349 8.51172 44.3795C9.10879 42.717 9.90309 41.4872 10.7829 40.1626L10.893 39.9969C11.7361 38.7291 12.6626 37.3357 13.3626 35.5023C14.1003 33.5698 14.5657 31.2151 14.5657 28C14.5657 24.7841 14.1002 22.3505 13.3732 20.3214C12.6515 18.3069 11.6898 16.7482 10.8067 15.3275L10.7674 15.2644C9.88922 13.8517 9.09996 12.5821 8.50549 10.9882C7.91038 9.39252 7.49495 7.42068 7.49495 4.66663H4.66667ZM24.2496 12.0352C23.5189 10.0762 23.0505 7.7459 23.0505 4.66663H25.8788C25.8788 7.42068 26.2942 9.39252 26.8893 10.9882C27.4838 12.5821 28.2731 13.8517 29.1513 15.2643L29.1513 15.2644L29.1905 15.3275C30.0736 16.7482 31.0354 18.3069 31.7571 20.3214C32.484 22.3505 32.9495 24.7841 32.9495 28C32.9495 31.2151 32.4842 33.5698 31.7464 35.5023C31.0465 37.3357 30.1199 38.7291 29.2769 39.9969L29.1667 40.1626C28.2869 41.4872 27.4926 42.717 26.8956 44.3795C26.301 46.0349 25.8788 48.1921 25.8788 51.3333H23.0505C23.0505 47.912 23.5121 45.4025 24.2433 43.3665C24.972 41.3376 25.9454 39.8512 26.8333 38.5144L26.8999 38.4141C27.7685 37.1068 28.5343 35.9541 29.1147 34.4338C29.7027 32.8937 30.1212 30.9098 30.1212 28C30.1212 25.0908 29.7029 23.0036 29.1041 21.3322C28.5 19.6461 27.694 18.3246 26.8095 16.9016L26.725 16.7656C25.874 15.3976 24.9488 13.91 24.2496 12.0352ZM42.6334 12.0352C41.9028 10.0762 41.4344 7.7459 41.4344 4.66663H44.2626C44.2626 7.42068 44.6781 9.39252 45.2732 10.9882C45.8676 12.5821 46.6569 13.8517 47.5351 15.2644L47.5744 15.3275C48.4575 16.7482 49.4192 18.3069 50.1409 20.3214C50.8679 22.3505 51.3333 24.7841 51.3333 28C51.3333 31.2151 50.868 33.5698 50.1302 35.5023C49.4303 37.3357 48.5037 38.7291 47.6607 39.9969L47.5506 40.1626C46.6708 41.4872 45.8765 42.717 45.2794 44.3795C44.6849 46.0349 44.2626 48.1921 44.2626 51.3333H41.4344C41.4344 47.912 41.896 45.4025 42.6272 43.3665C43.3559 41.3376 44.3292 39.8512 45.2171 38.5144L45.2837 38.4141C46.1523 37.1068 46.9182 35.9541 47.4986 34.4338C48.0865 32.8937 48.5051 30.9098 48.5051 28C48.5051 25.0908 48.0867 23.0036 47.4879 21.3322C46.8838 19.6461 46.0779 18.3246 45.1933 16.9016L45.1088 16.7656C44.2579 15.3976 43.3326 13.91 42.6334 12.0352Z" fill="#ED1C24"></path>
</svg>