<svg fill="red" height="56px" width="56px" version="1.1" id="Layer_1" xmlns="http://www.w3.org/2000/svg" xmlns:xlink="http://www.w3.org/1999/xlink" viewBox="0 0 512.001 512.001" xml:space="preserve"><g id="SVGRepo_bgCarrier" stroke-width="0"></g><g id="SVGRepo_tracerCarrier" stroke-linecap="round" stroke-linejoin="round"></g><g id="SVGRepo_iconCarrier"> <g> <g> <g> <path d="M482.358,156.294c16.345,0,29.642-13.297,29.642-29.642s-13.297-29.641-29.642-29.641 c-16.345,0-29.642,13.297-29.642,29.642S466.013,156.294,482.358,156.294z M482.358,113.179c7.43,0,13.474,6.044,13.474,13.474 s-6.044,13.474-13.474,13.474s-13.474-6.044-13.474-13.474S474.929,113.179,482.358,113.179z"></path> <path d="M247.916,180.546c0,16.345,13.297,29.642,29.642,29.642c4.465,0,8.084-3.62,8.084-8.084s-3.62-8.084-8.084-8.084 c-7.43,0-13.474-6.044-13.474-13.474s6.044-13.474,13.474-13.474h140.126c7.43,0,13.474,6.044,13.474,13.474 s-6.044,13.474-13.474,13.474h-64.674c-4.465,0-8.084,3.62-8.084,8.084s3.62,8.084,8.084,8.084h64.674 c16.345,0,29.642-13.297,29.642-29.642c0-16.345-13.297-29.642-29.642-29.642H277.558 C261.213,150.904,247.916,164.201,247.916,180.546z"></path> <path d="M266.779,59.284c16.345,0,29.642-13.297,29.642-29.642C296.422,13.297,283.125,0,266.779,0 c-16.345,0-29.642,13.297-29.642,29.642C237.137,45.987,250.434,59.284,266.779,59.284z M266.779,16.168 c7.43,0,13.474,6.044,13.474,13.474c0,7.43-6.044,13.474-13.474,13.474s-13.474-6.045-13.474-13.474 C253.306,22.213,259.35,16.168,266.779,16.168z"></path> <path d="M503.916,495.829h-2.695v-99.705c0-10.401-8.463-18.863-18.863-18.863h-2.695v-24.253 c0-10.401-8.463-18.863-18.863-18.863h-64.674c-10.401,0-18.863,8.463-18.863,18.863v24.253h-37.726v-24.253 c0-10.401-8.463-18.863-18.863-18.863h-43.116c-4.465,0-8.084,3.62-8.084,8.084c0,4.465,3.62,8.084,8.084,8.084h43.116 c1.485,0,2.695,1.209,2.695,2.695v24.253h-35.032c-4.465,0-8.084,3.62-8.084,8.084c0,4.465,3.62,8.084,8.084,8.084h194.021 c1.485,0,2.695,1.209,2.695,2.695v99.705H342.232c-4.465,0-8.084,3.62-8.084,8.084c0,4.465,3.62,8.084,8.084,8.084h161.684 c4.465,0,8.084-3.62,8.084-8.084C512.001,499.449,508.381,495.829,503.916,495.829z M463.495,377.262h-70.063v-24.253 c0-1.485,1.209-2.695,2.695-2.695h64.674c1.485,0,2.695,1.209,2.695,2.695V377.262z"></path> <path d="M140.127,223.662c0,16.345,13.297,29.642,29.642,29.642h140.126c16.345,0,29.642-13.297,29.642-29.642 c0-16.345-13.297-29.642-29.642-29.642c-4.465,0-8.084,3.62-8.084,8.084s3.62,8.084,8.084,8.084 c7.43,0,13.474,6.044,13.474,13.474c0,7.43-6.044,13.474-13.474,13.474H169.769c-7.43,0-13.474-6.044-13.474-13.474 c0-7.43,6.044-13.474,13.474-13.474h64.674c4.465,0,8.084-3.62,8.084-8.084s-3.62-8.084-8.084-8.084h-64.674 C153.424,194.02,140.127,207.317,140.127,223.662z"></path> <path d="M406.906,436.545h43.116c4.465,0,8.084-3.62,8.084-8.084c0-4.465-3.62-8.084-8.084-8.084h-43.116 c-4.465,0-8.084,3.62-8.084,8.084S402.441,436.545,406.906,436.545z"></path> <path d="M406.906,468.882h43.116c4.465,0,8.084-3.62,8.084-8.084c0-4.465-3.62-8.084-8.084-8.084h-43.116 c-4.465,0-8.084,3.62-8.084,8.084S402.441,468.882,406.906,468.882z"></path> <path d="M309.895,495.829h-15.117l-6.177-26.947h21.295c4.465,0,8.084-3.62,8.084-8.084c0-4.465-3.62-8.084-8.084-8.084h-25.002 l-3.707-16.168h28.709c4.465,0,8.084-3.62,8.084-8.084c0-4.465-3.62-8.084-8.084-8.084h-32.337c-0.026,0-0.052,0-0.078,0 l-6.665-29.073c-7.412-32.329-11.169-65.538-11.169-98.707v-4.263c0-10.401-8.463-18.863-18.863-18.863H101.925 c-10.401,0-18.863,8.463-18.863,18.863c0,35.947-4.403,71.859-13.09,106.739L44.883,495.828H26.948V371.87h24.253 c4.465,0,8.084-3.62,8.084-8.084s-3.62-8.084-8.084-8.084H26.948v-37.726h35.032c4.465,0,8.084-3.62,8.084-8.084 c0-4.465-3.62-8.084-8.084-8.084H26.948v-37.726h45.811c4.465,0,8.084-3.62,8.084-8.084c0-4.465-3.62-8.084-8.084-8.084H26.948 v-37.726h45.811c4.465,0,8.084-3.62,8.084-8.084s-3.62-8.084-8.084-8.084H26.948v-37.726h45.811c4.465,0,8.084-3.62,8.084-8.084 c0-4.465-3.62-8.084-8.084-8.084H26.948v-35.028c0-1.485,1.209-2.695,2.695-2.695h64.674c1.485,0,2.695,1.209,2.695,2.695V245.22 c0,4.465,3.62,8.084,8.084,8.084c4.465,0,8.084-3.62,8.084-8.084V105.095c0-10.402-8.463-18.863-18.863-18.863H29.643 c-10.401,0-18.863,8.461-18.863,18.863v390.736H8.085c-4.465,0-8.084,3.62-8.084,8.084c0,4.465,3.62,8.084,8.084,8.084h42.947 c0.058,0.001,0.116,0.002,0.176,0.002s0.116-0.001,0.175-0.002h182.884c0.114,0.002,0.226,0.002,0.34,0h53.555 c0.114,0.002,0.226,0.002,0.34,0h21.396c4.465,0,8.084-3.62,8.084-8.084C317.981,499.45,314.361,495.829,309.895,495.829z M240.883,495.828v0.001l-23.962-104.525c-2.177-9.498-4.063-19.188-5.603-28.797c-0.706-4.409-4.856-7.411-9.261-6.702 c-4.409,0.706-7.409,4.853-6.702,9.261c1.596,9.961,3.549,20.005,5.807,29.85l23.134,100.911H61.545l24.117-96.85 c9.004-36.156,13.569-73.382,13.569-110.644c0-1.485,1.209-2.695,2.695-2.695h84.964c1.485,0,2.695,1.209,2.695,2.695v4.263 c0,13.148,0.576,26.455,1.711,39.552c0.386,4.447,4.303,7.746,8.753,7.356c4.447-0.386,7.741-4.304,7.356-8.753 c-1.096-12.634-1.651-25.472-1.651-38.155v-4.263c0-0.915-0.066-1.814-0.192-2.695h35.223c1.485,0,2.695,1.209,2.695,2.695v4.263 c0,34.382,3.896,68.807,11.578,102.319l23.134,100.911H240.883z"></path> <path d="M51.201,59.284c4.465,0,8.084-3.62,8.084-8.084s-3.62-8.084-8.084-8.084c-7.43,0-13.474-6.044-13.474-13.474 c0-7.43,6.044-13.474,13.474-13.474h140.126c7.43,0,13.474,6.044,13.474,13.474c0,7.43-6.044,13.474-13.474,13.474H83.537 c-4.465,0-8.084,3.62-8.084,8.084s3.62,8.084,8.084,8.084h107.789c16.345,0,29.642-13.297,29.642-29.642 C220.969,13.297,207.672,0,191.327,0H51.201C34.855,0,21.558,13.297,21.558,29.642C21.558,45.986,34.855,59.284,51.201,59.284z"></path> </g> </g> </g> </g></svg>