<svg width="56" height="56" viewBox="0 0 56 56" fill="none" xmlns="http://www.w3.org/2000/svg">
<path d="M28.9099 4.6846C22.4991 4.43765 16.4325 6.75154 11.8222 11.1887C7.20805 15.6298 4.66667 21.5993 4.66667 28.0004C4.66667 28.5079 4.71917 29.0115 4.75223 29.517C4.74445 29.5637 4.725 29.6045 4.725 29.6531V29.7309C4.725 29.8262 4.75417 29.9118 4.77945 29.9973C4.87278 31.0901 5.01473 32.177 5.25973 33.2426C6.55472 38.8678 10.8986 42.9881 16.0689 43.4937C16.4752 43.5345 16.8875 43.5559 17.3055 43.5559C22.4486 43.5559 27.0433 40.4059 28.976 35.679C32.8007 35.1929 35.7777 31.9554 35.7777 28.0004V23.1393C35.7777 22.6026 35.3421 22.1671 34.8055 22.1671H33.8332V15.3615C33.8332 14.8248 33.3977 14.3893 32.861 14.3893C32.3244 14.3893 31.8888 14.8248 31.8888 15.3615V22.1671H24.111V15.3615C24.111 14.8248 23.6755 14.3893 23.1388 14.3893C22.6022 14.3893 22.1666 14.8248 22.1666 15.3615V22.1671H21.1944C20.6577 22.1671 20.2222 22.6026 20.2222 23.1393V28.0004C20.2222 31.899 23.1155 35.1073 26.8624 35.6634C25.0735 39.2606 21.3927 41.6114 17.3055 41.6114C16.9516 41.6114 16.6036 41.5939 16.2594 41.5609C11.9214 41.1351 8.26194 37.6176 7.15361 32.809C6.79389 31.2398 6.61111 29.6201 6.61111 28.0004C6.61111 22.134 8.94055 16.6604 13.1697 12.5887C17.3969 8.52097 22.9697 6.41126 28.836 6.62709C39.931 7.04903 48.9512 16.0693 49.3732 27.1643C49.5968 33.0404 47.4793 38.6034 43.4115 42.8306C39.3399 47.0598 33.8663 49.3892 27.9999 49.3892C27.4633 49.3892 27.0277 49.8248 27.0277 50.3614C27.0277 50.8981 27.4633 51.3336 27.9999 51.3336C34.401 51.3336 40.3704 48.7923 44.8115 44.1781C49.2507 39.5678 51.5607 33.4992 51.3157 27.0904C50.8548 14.9882 41.0121 5.14543 28.9099 4.6846ZM22.1666 28.0004V24.1115H33.8332V28.0004C33.8332 31.2165 31.216 33.8337 27.9999 33.8337C24.7838 33.8337 22.1666 31.2165 22.1666 28.0004Z" fill="#ED1C24"></path>
</svg>