<svg width="56" height="56" viewBox="0 0 56 56" fill="none" xmlns="http://www.w3.org/2000/svg">
<path d="M50.3189 22.8529C49.7589 22.8529 49.3044 23.3141 49.3044 23.8824V24.9118H34.3954C33.9754 24.6112 33.5331 24.3435 33.0725 24.1026V19.7647C33.0725 19.1965 32.618 18.7353 32.058 18.7353H29.0145V12.5588H36.116C36.676 12.5588 37.1305 12.0976 37.1305 11.5294C37.1305 10.9612 36.676 10.5 36.116 10.5H19.8841C19.3241 10.5 18.8696 10.9612 18.8696 11.5294C18.8696 12.0976 19.3241 12.5588 19.8841 12.5588H26.9855V18.7353H23.942C23.382 18.7353 22.9276 19.1965 22.9276 19.7647V24.1026C22.467 24.3435 22.0247 24.6112 21.6047 24.9118H6.69567V23.8824C6.69567 23.3141 6.24118 22.8529 5.68118 22.8529C5.12118 22.8529 4.66669 23.3141 4.66669 23.8824V25.9412V42.4118V44.4706C4.66669 45.0388 5.12118 45.5 5.68118 45.5C6.24118 45.5 6.69567 45.0388 6.69567 44.4706V43.4412H21.6047C23.4186 44.7341 25.62 45.5 28 45.5C30.38 45.5 32.5815 44.7341 34.3954 43.4412H49.3044V44.4706C49.3044 45.0388 49.7589 45.5 50.3189 45.5C50.8789 45.5 51.3334 45.0388 51.3334 44.4706V42.4118V25.9412V23.8824C51.3334 23.3141 50.8789 22.8529 50.3189 22.8529ZM45.2464 26.9706V41.3824H36.6009C38.1977 39.4224 39.1594 36.9106 39.1594 34.1765C39.1594 31.4424 38.1977 28.9306 36.6009 26.9706H45.2464ZM24.9565 20.7941H31.0435V23.2915C30.0736 23.0135 29.0571 22.8529 28 22.8529C26.9429 22.8529 25.9264 23.0135 24.9565 23.2915V20.7941ZM19.3992 26.9706C17.8023 28.9306 16.8406 31.4424 16.8406 34.1765C16.8406 36.9106 17.8023 39.4224 19.3992 41.3824H10.7536V26.9706H19.3992ZM6.69567 26.9706H8.72466V41.3824H6.69567V26.9706ZM18.8696 34.1765C18.8696 29.0685 22.9661 24.9118 28 24.9118C33.0339 24.9118 37.1305 29.0685 37.1305 34.1765C37.1305 39.2844 33.0339 43.4412 28 43.4412C22.9661 43.4412 18.8696 39.2844 18.8696 34.1765ZM47.2754 41.3824V26.9706H49.3044V41.3824H47.2754Z" fill="#ED1C24"></path>
</svg>