<svg width="56" height="56" viewBox="0 0 56 56" fill="none" xmlns="http://www.w3.org/2000/svg">
<path d="M19.0747 19.0669C18.008 20.2686 16.9032 21.5111 15.9865 22.8721C13.3726 26.7571 13.3346 32.6642 15.8944 36.9205C18.3182 40.9493 22.9796 43.5548 27.7731 43.5548C27.8251 43.5548 27.8752 43.549 27.9272 43.547C27.9532 43.547 27.9752 43.5548 28.0012 43.5548C28.0733 43.5548 28.1413 43.5354 28.2134 43.5334C28.4816 43.5237 28.7498 43.5198 29.016 43.4945C29.2121 43.4751 29.4023 43.4245 29.5984 43.3973C29.6064 43.3954 29.6144 43.3954 29.6224 43.3934C34.492 42.6993 38.8571 39.384 40.8526 34.7583C42.9882 29.8059 42.1235 23.7549 38.4188 17.7156C35.5307 13.0101 31.2776 8.79852 25.4154 4.83971C25.0771 4.61221 24.6248 4.60832 24.2865 4.83193C23.9403 5.05748 23.7762 5.46386 23.8682 5.85469C24.3106 7.75243 24.2225 9.97488 23.6181 12.1137C22.8555 14.8145 21.0202 16.8795 19.0747 19.0669ZM28.4376 41.5676C28.2014 41.5832 27.9632 41.5832 27.727 41.5832C24.5447 41.4412 21.9969 38.9018 21.9969 35.7772C21.9969 33.3039 25.7996 27.7059 28.0012 24.766C30.2028 27.7059 34.0056 33.3019 34.0056 35.7772C34.0056 38.8493 31.5418 41.346 28.4376 41.5676ZM25.5475 12.6309C26.0058 11.0074 26.2019 9.33323 26.1319 7.74465C30.8013 11.1551 34.2698 14.7581 36.6956 18.7131C38.649 21.896 41.5451 28.1143 39.0033 34.0078C38.2107 35.8452 36.9377 37.4474 35.4026 38.7171C35.7869 37.8091 36.0071 36.8194 36.0071 35.7772C36.0071 31.8047 29.5344 23.4827 28.7938 22.5474C28.4175 22.0652 27.5829 22.0652 27.2067 22.5474C26.4681 23.4827 19.9954 31.8047 19.9954 35.7772C19.9954 37.1285 20.3837 38.3807 21.0082 39.4871C19.6412 38.5538 18.4683 37.3482 17.6217 35.9405C15.4241 32.285 15.4401 27.2373 17.6637 23.9357C18.5063 22.6835 19.5191 21.5461 20.5899 20.3386C22.5933 18.0831 24.6648 15.7517 25.5475 12.6309Z" fill="#ED1C24"></path>
<path d="M37.0839 45.4992H18.9186C18.5404 45.4992 18.1941 45.7073 18.024 46.0359L16.0225 49.9247C15.8684 50.2261 15.8844 50.5838 16.0646 50.8697C16.2487 51.1574 16.5709 51.3324 16.9172 51.3324H39.0853C39.0993 51.3344 39.1153 51.3324 39.1253 51.3324C39.6777 51.3324 40.1261 50.8969 40.1261 50.3602C40.1261 50.1094 40.03 49.8819 39.8699 49.7108L37.9805 46.0359C37.8084 45.7073 37.4641 45.4992 37.0839 45.4992ZM18.5364 49.388L19.5371 47.4436H36.4674L37.4681 49.388H18.5364Z" fill="#ED1C24"></path>
</svg>